# xmcd
#
# Track frame offsets:
#	150
#	22991
#	39400
#	54735
#	69514
#	84794
#	99928
#	119495
#	137077
#	157007
#	179721
#	194246
#	215429
#	231510
#	263400
#
# Disc length: 3537 seconds
# Revision: 0
# Processed by: cddbd v1.5.2PL0 Copyright (c) Steve Scherf et al.
# Submitted via: dBpowerAMP V12.0
#
DISCID=d50dcf0f
DTITLE=Hale Dwoskin - The Sedona Method Course CD 03
DYEAR=2007
DGENRE=Speech
TTITLE0=Putting Our Problems and Suffering into Perspective
TTITLE1=Chart of Emotions
TTITLE2=Description of Process
TTITLE3=Apathy
TTITLE4=Grief
TTITLE5=Fear
TTITLE6=Lust
TTITLE7=Anger
TTITLE8=Pride
TTITLE9=Courageousness
TTITLE10=Acceptance
TTITLE11=Peace
TTITLE12=Feelings Only Lie
TTITLE13=Q and A, Sharing and Assistance
TTITLE14=Conclusion
EXTD=
EXTT0=
EXTT1=
EXTT2=
EXTT3=
EXTT4=
EXTT5=
EXTT6=
EXTT7=
EXTT8=
EXTT9=
EXTT10=
EXTT11=
EXTT12=
EXTT13=
EXTT14=
PLAYORDER=
